<mxfile host="Electron" agent="Mozilla/5.0 (Windows NT 10.0; Win64; x64) AppleWebKit/537.36 (KHTML, like Gecko) draw.io/24.7.17 Chrome/128.0.6613.36 Electron/32.0.1 Safari/537.36" version="24.7.17">
  <diagram name="Page-1" id="41HSJJf04pv3hfkmhLoQ">
    <mxGraphModel dx="2537" dy="2093" grid="1" gridSize="10" guides="1" tooltips="1" connect="1" arrows="1" fold="1" page="1" pageScale="1" pageWidth="850" pageHeight="1100" math="0" shadow="0">
      <root>
        <mxCell id="0" />
        <mxCell id="1" parent="0" />
        <mxCell id="AeX9q6g0KOqxnSNX1okh-1" value="Employee" style="rounded=0;whiteSpace=wrap;html=1;" parent="1" vertex="1">
          <mxGeometry x="-110" y="460" width="120" height="60" as="geometry" />
        </mxCell>
        <mxCell id="L1_H7iu_4x4MC4DymqW3-15" style="edgeStyle=orthogonalEdgeStyle;rounded=0;orthogonalLoop=1;jettySize=auto;html=1;exitX=0.5;exitY=0;exitDx=0;exitDy=0;" edge="1" parent="1" target="dwOkogamEhaXvfS-pk7C-25">
          <mxGeometry relative="1" as="geometry">
            <mxPoint x="890" y="599.9999999999995" as="sourcePoint" />
            <Array as="points">
              <mxPoint x="890" y="420" />
              <mxPoint x="790" y="420" />
              <mxPoint x="790" y="370" />
            </Array>
          </mxGeometry>
        </mxCell>
        <mxCell id="L1_H7iu_4x4MC4DymqW3-37" style="edgeStyle=orthogonalEdgeStyle;rounded=0;orthogonalLoop=1;jettySize=auto;html=1;exitX=1;exitY=0;exitDx=0;exitDy=0;entryX=0.5;entryY=1;entryDx=0;entryDy=0;" edge="1" parent="1" target="L1_H7iu_4x4MC4DymqW3-36">
          <mxGeometry relative="1" as="geometry">
            <mxPoint x="950" y="599.9999999999995" as="sourcePoint" />
          </mxGeometry>
        </mxCell>
        <mxCell id="L1_H7iu_4x4MC4DymqW3-39" style="edgeStyle=orthogonalEdgeStyle;rounded=0;orthogonalLoop=1;jettySize=auto;html=1;" edge="1" parent="1" target="dwOkogamEhaXvfS-pk7C-29">
          <mxGeometry relative="1" as="geometry">
            <mxPoint x="830" y="629.9411764705883" as="sourcePoint" />
          </mxGeometry>
        </mxCell>
        <mxCell id="AeX9q6g0KOqxnSNX1okh-3" value="Inventory" style="rounded=0;whiteSpace=wrap;html=1;" parent="1" vertex="1">
          <mxGeometry x="470" y="440" width="120" height="60" as="geometry" />
        </mxCell>
        <mxCell id="dwOkogamEhaXvfS-pk7C-30" style="edgeStyle=orthogonalEdgeStyle;rounded=0;orthogonalLoop=1;jettySize=auto;html=1;exitX=1;exitY=0.5;exitDx=0;exitDy=0;entryX=0;entryY=0.5;entryDx=0;entryDy=0;" parent="1" source="AeX9q6g0KOqxnSNX1okh-4" target="dwOkogamEhaXvfS-pk7C-29" edge="1">
          <mxGeometry relative="1" as="geometry" />
        </mxCell>
        <mxCell id="L1_H7iu_4x4MC4DymqW3-71" style="edgeStyle=orthogonalEdgeStyle;rounded=0;orthogonalLoop=1;jettySize=auto;html=1;entryX=0.5;entryY=1;entryDx=0;entryDy=0;" edge="1" parent="1" source="AeX9q6g0KOqxnSNX1okh-4" target="dwOkogamEhaXvfS-pk7C-18">
          <mxGeometry relative="1" as="geometry" />
        </mxCell>
        <mxCell id="AeX9q6g0KOqxnSNX1okh-4" value="Store" style="rounded=0;whiteSpace=wrap;html=1;" parent="1" vertex="1">
          <mxGeometry x="305" y="620" width="120" height="60" as="geometry" />
        </mxCell>
        <mxCell id="AeX9q6g0KOqxnSNX1okh-5" value="Manages" style="rhombus;whiteSpace=wrap;html=1;" parent="1" vertex="1">
          <mxGeometry x="30" y="300" width="80" height="80" as="geometry" />
        </mxCell>
        <mxCell id="AeX9q6g0KOqxnSNX1okh-8" value="" style="shape=link;html=1;rounded=0;entryX=0.75;entryY=0;entryDx=0;entryDy=0;exitX=0;exitY=0.5;exitDx=0;exitDy=0;" parent="1" source="AeX9q6g0KOqxnSNX1okh-5" target="AeX9q6g0KOqxnSNX1okh-1" edge="1">
          <mxGeometry width="100" relative="1" as="geometry">
            <mxPoint x="260" y="400" as="sourcePoint" />
            <mxPoint x="360" y="400" as="targetPoint" />
          </mxGeometry>
        </mxCell>
        <mxCell id="AeX9q6g0KOqxnSNX1okh-9" value="Supervision" style="rhombus;whiteSpace=wrap;html=1;" parent="1" vertex="1">
          <mxGeometry x="70" y="570" width="80" height="80" as="geometry" />
        </mxCell>
        <mxCell id="AeX9q6g0KOqxnSNX1okh-11" value="Department" style="rounded=0;whiteSpace=wrap;html=1;" parent="1" vertex="1">
          <mxGeometry y="100" width="120" height="60" as="geometry" />
        </mxCell>
        <mxCell id="AeX9q6g0KOqxnSNX1okh-12" value="Leads" style="rhombus;whiteSpace=wrap;html=1;" parent="1" vertex="1">
          <mxGeometry x="230" y="490" width="80" height="80" as="geometry" />
        </mxCell>
        <mxCell id="AeX9q6g0KOqxnSNX1okh-13" value="" style="shape=link;html=1;rounded=0;exitX=0;exitY=1;exitDx=0;exitDy=0;entryX=1;entryY=0.5;entryDx=0;entryDy=0;" parent="1" source="AeX9q6g0KOqxnSNX1okh-11" target="AeX9q6g0KOqxnSNX1okh-5" edge="1">
          <mxGeometry width="100" relative="1" as="geometry">
            <mxPoint x="260" y="400" as="sourcePoint" />
            <mxPoint x="360" y="400" as="targetPoint" />
          </mxGeometry>
        </mxCell>
        <mxCell id="AeX9q6g0KOqxnSNX1okh-14" value="" style="shape=link;html=1;rounded=0;exitX=1;exitY=0.75;exitDx=0;exitDy=0;entryX=0;entryY=0.5;entryDx=0;entryDy=0;" parent="1" source="AeX9q6g0KOqxnSNX1okh-1" target="AeX9q6g0KOqxnSNX1okh-12" edge="1">
          <mxGeometry width="100" relative="1" as="geometry">
            <mxPoint x="260" y="400" as="sourcePoint" />
            <mxPoint x="360" y="400" as="targetPoint" />
          </mxGeometry>
        </mxCell>
        <mxCell id="AeX9q6g0KOqxnSNX1okh-15" value="" style="shape=link;html=1;rounded=0;entryX=0.5;entryY=1;entryDx=0;entryDy=0;" parent="1" target="AeX9q6g0KOqxnSNX1okh-12" edge="1">
          <mxGeometry width="100" relative="1" as="geometry">
            <mxPoint x="310" y="620" as="sourcePoint" />
            <mxPoint x="230" y="530" as="targetPoint" />
            <Array as="points">
              <mxPoint x="310" y="620" />
            </Array>
          </mxGeometry>
        </mxCell>
        <mxCell id="AeX9q6g0KOqxnSNX1okh-16" value="" style="shape=link;html=1;rounded=0;entryX=0.5;entryY=0;entryDx=0;entryDy=0;exitX=0.75;exitY=1;exitDx=0;exitDy=0;" parent="1" source="AeX9q6g0KOqxnSNX1okh-1" target="AeX9q6g0KOqxnSNX1okh-9" edge="1">
          <mxGeometry width="100" relative="1" as="geometry">
            <mxPoint x="260" y="400" as="sourcePoint" />
            <mxPoint x="360" y="400" as="targetPoint" />
          </mxGeometry>
        </mxCell>
        <mxCell id="AeX9q6g0KOqxnSNX1okh-17" value="Works At" style="rhombus;whiteSpace=wrap;html=1;" parent="1" vertex="1">
          <mxGeometry x="150" y="550" width="80" height="80" as="geometry" />
        </mxCell>
        <mxCell id="AeX9q6g0KOqxnSNX1okh-18" value="" style="shape=link;html=1;rounded=0;exitX=1;exitY=1;exitDx=0;exitDy=0;entryX=0.5;entryY=0;entryDx=0;entryDy=0;" parent="1" source="AeX9q6g0KOqxnSNX1okh-1" target="AeX9q6g0KOqxnSNX1okh-17" edge="1">
          <mxGeometry width="100" relative="1" as="geometry">
            <mxPoint x="260" y="400" as="sourcePoint" />
            <mxPoint x="360" y="400" as="targetPoint" />
          </mxGeometry>
        </mxCell>
        <mxCell id="AeX9q6g0KOqxnSNX1okh-19" value="" style="shape=link;html=1;rounded=0;exitX=1;exitY=0.5;exitDx=0;exitDy=0;entryX=0;entryY=0.25;entryDx=0;entryDy=0;" parent="1" source="AeX9q6g0KOqxnSNX1okh-17" target="AeX9q6g0KOqxnSNX1okh-4" edge="1">
          <mxGeometry width="100" relative="1" as="geometry">
            <mxPoint x="260" y="400" as="sourcePoint" />
            <mxPoint x="360" y="400" as="targetPoint" />
          </mxGeometry>
        </mxCell>
        <mxCell id="dwOkogamEhaXvfS-pk7C-2" value="Product" style="rounded=0;whiteSpace=wrap;html=1;" parent="1" vertex="1">
          <mxGeometry x="560" y="120" width="120" height="60" as="geometry" />
        </mxCell>
        <mxCell id="dwOkogamEhaXvfS-pk7C-8" value="" style="edgeStyle=orthogonalEdgeStyle;rounded=0;orthogonalLoop=1;jettySize=auto;html=1;" parent="1" source="dwOkogamEhaXvfS-pk7C-7" target="AeX9q6g0KOqxnSNX1okh-3" edge="1">
          <mxGeometry relative="1" as="geometry" />
        </mxCell>
        <mxCell id="dwOkogamEhaXvfS-pk7C-9" value="" style="edgeStyle=orthogonalEdgeStyle;rounded=0;orthogonalLoop=1;jettySize=auto;html=1;" parent="1" source="dwOkogamEhaXvfS-pk7C-7" target="dwOkogamEhaXvfS-pk7C-2" edge="1">
          <mxGeometry relative="1" as="geometry" />
        </mxCell>
        <mxCell id="dwOkogamEhaXvfS-pk7C-7" value="Contains" style="rhombus;whiteSpace=wrap;html=1;" parent="1" vertex="1">
          <mxGeometry x="500" y="240" width="80" height="80" as="geometry" />
        </mxCell>
        <mxCell id="dwOkogamEhaXvfS-pk7C-10" value="Shelves" style="rounded=0;whiteSpace=wrap;html=1;" parent="1" vertex="1">
          <mxGeometry x="920" y="210" width="120" height="60" as="geometry" />
        </mxCell>
        <mxCell id="dwOkogamEhaXvfS-pk7C-11" value="Supplier" style="rounded=0;whiteSpace=wrap;html=1;" parent="1" vertex="1">
          <mxGeometry x="270" y="30" width="120" height="60" as="geometry" />
        </mxCell>
        <mxCell id="dwOkogamEhaXvfS-pk7C-19" style="edgeStyle=orthogonalEdgeStyle;rounded=0;orthogonalLoop=1;jettySize=auto;html=1;exitX=1;exitY=1;exitDx=0;exitDy=0;entryX=0;entryY=0;entryDx=0;entryDy=0;" parent="1" source="dwOkogamEhaXvfS-pk7C-18" target="dwOkogamEhaXvfS-pk7C-2" edge="1">
          <mxGeometry relative="1" as="geometry" />
        </mxCell>
        <mxCell id="dwOkogamEhaXvfS-pk7C-20" style="edgeStyle=orthogonalEdgeStyle;rounded=0;orthogonalLoop=1;jettySize=auto;html=1;exitX=0;exitY=0;exitDx=0;exitDy=0;entryX=1;entryY=1;entryDx=0;entryDy=0;" parent="1" source="dwOkogamEhaXvfS-pk7C-18" target="dwOkogamEhaXvfS-pk7C-11" edge="1">
          <mxGeometry relative="1" as="geometry" />
        </mxCell>
        <mxCell id="dwOkogamEhaXvfS-pk7C-18" value="Supplies" style="rhombus;whiteSpace=wrap;html=1;" parent="1" vertex="1">
          <mxGeometry x="390" y="80" width="80" height="80" as="geometry" />
        </mxCell>
        <mxCell id="dwOkogamEhaXvfS-pk7C-22" style="edgeStyle=orthogonalEdgeStyle;rounded=0;orthogonalLoop=1;jettySize=auto;html=1;exitX=0.5;exitY=0;exitDx=0;exitDy=0;" parent="1" source="dwOkogamEhaXvfS-pk7C-21" edge="1">
          <mxGeometry relative="1" as="geometry">
            <mxPoint x="720" y="210" as="sourcePoint" />
            <mxPoint x="680" y="150" as="targetPoint" />
            <Array as="points">
              <mxPoint x="780" y="150" />
            </Array>
          </mxGeometry>
        </mxCell>
        <mxCell id="dwOkogamEhaXvfS-pk7C-23" style="edgeStyle=orthogonalEdgeStyle;rounded=0;orthogonalLoop=1;jettySize=auto;html=1;exitX=1;exitY=1;exitDx=0;exitDy=0;entryX=0;entryY=0.5;entryDx=0;entryDy=0;" parent="1" source="dwOkogamEhaXvfS-pk7C-21" target="dwOkogamEhaXvfS-pk7C-10" edge="1">
          <mxGeometry relative="1" as="geometry">
            <Array as="points">
              <mxPoint x="880" y="240" />
              <mxPoint x="880" y="240" />
            </Array>
          </mxGeometry>
        </mxCell>
        <mxCell id="dwOkogamEhaXvfS-pk7C-21" value="Contains" style="rhombus;whiteSpace=wrap;html=1;" parent="1" vertex="1">
          <mxGeometry x="740" y="180" width="80" height="80" as="geometry" />
        </mxCell>
        <mxCell id="dwOkogamEhaXvfS-pk7C-32" style="edgeStyle=orthogonalEdgeStyle;rounded=0;orthogonalLoop=1;jettySize=auto;html=1;exitX=0.5;exitY=1;exitDx=0;exitDy=0;" parent="1" source="dwOkogamEhaXvfS-pk7C-24" target="dwOkogamEhaXvfS-pk7C-29" edge="1">
          <mxGeometry relative="1" as="geometry" />
        </mxCell>
        <mxCell id="L1_H7iu_4x4MC4DymqW3-14" style="edgeStyle=orthogonalEdgeStyle;rounded=0;orthogonalLoop=1;jettySize=auto;html=1;exitX=0.5;exitY=0;exitDx=0;exitDy=0;entryX=0;entryY=0.5;entryDx=0;entryDy=0;" edge="1" parent="1" source="dwOkogamEhaXvfS-pk7C-24" target="dwOkogamEhaXvfS-pk7C-25">
          <mxGeometry relative="1" as="geometry" />
        </mxCell>
        <mxCell id="dwOkogamEhaXvfS-pk7C-24" value="Cart" style="rounded=0;whiteSpace=wrap;html=1;" parent="1" vertex="1">
          <mxGeometry x="620" y="480" width="120" height="60" as="geometry" />
        </mxCell>
        <mxCell id="L1_H7iu_4x4MC4DymqW3-22" style="edgeStyle=orthogonalEdgeStyle;rounded=0;orthogonalLoop=1;jettySize=auto;html=1;entryX=0.5;entryY=1;entryDx=0;entryDy=0;" edge="1" parent="1" source="dwOkogamEhaXvfS-pk7C-25" target="dwOkogamEhaXvfS-pk7C-2">
          <mxGeometry relative="1" as="geometry" />
        </mxCell>
        <mxCell id="dwOkogamEhaXvfS-pk7C-25" value="Adds" style="rhombus;whiteSpace=wrap;html=1;" parent="1" vertex="1">
          <mxGeometry x="680" y="350" width="80" height="80" as="geometry" />
        </mxCell>
        <mxCell id="dwOkogamEhaXvfS-pk7C-29" value="Purchases" style="rhombus;whiteSpace=wrap;html=1;" parent="1" vertex="1">
          <mxGeometry x="470" y="610" width="80" height="80" as="geometry" />
        </mxCell>
        <mxCell id="dwOkogamEhaXvfS-pk7C-33" value="Name" style="ellipse;whiteSpace=wrap;html=1;" parent="1" vertex="1">
          <mxGeometry x="-300" y="290" width="120" height="80" as="geometry" />
        </mxCell>
        <mxCell id="dwOkogamEhaXvfS-pk7C-34" value="Address" style="ellipse;whiteSpace=wrap;html=1;" parent="1" vertex="1">
          <mxGeometry x="-260" y="190" width="120" height="80" as="geometry" />
        </mxCell>
        <mxCell id="dwOkogamEhaXvfS-pk7C-35" value="MInitial" style="ellipse;whiteSpace=wrap;html=1;" parent="1" vertex="1">
          <mxGeometry x="-470" y="220" width="120" height="80" as="geometry" />
        </mxCell>
        <mxCell id="dwOkogamEhaXvfS-pk7C-36" value="&lt;u&gt;Ssn&lt;/u&gt;" style="ellipse;whiteSpace=wrap;html=1;" parent="1" vertex="1">
          <mxGeometry x="-350" y="380" width="120" height="80" as="geometry" />
        </mxCell>
        <mxCell id="dwOkogamEhaXvfS-pk7C-37" value="Birthdate" style="ellipse;whiteSpace=wrap;html=1;" parent="1" vertex="1">
          <mxGeometry x="-360" y="590" width="120" height="80" as="geometry" />
        </mxCell>
        <mxCell id="dwOkogamEhaXvfS-pk7C-38" value="Sex" style="ellipse;whiteSpace=wrap;html=1;" parent="1" vertex="1">
          <mxGeometry x="-380" y="490" width="120" height="80" as="geometry" />
        </mxCell>
        <mxCell id="dwOkogamEhaXvfS-pk7C-39" value="Salary" style="ellipse;whiteSpace=wrap;html=1;" parent="1" vertex="1">
          <mxGeometry x="-120" y="170" width="120" height="80" as="geometry" />
        </mxCell>
        <mxCell id="dwOkogamEhaXvfS-pk7C-42" value="" style="endArrow=none;html=1;rounded=0;exitX=0.25;exitY=0;exitDx=0;exitDy=0;entryX=1;entryY=1;entryDx=0;entryDy=0;" parent="1" source="AeX9q6g0KOqxnSNX1okh-1" target="dwOkogamEhaXvfS-pk7C-34" edge="1">
          <mxGeometry width="50" height="50" relative="1" as="geometry">
            <mxPoint x="-140" y="380" as="sourcePoint" />
            <mxPoint x="-120" y="320" as="targetPoint" />
          </mxGeometry>
        </mxCell>
        <mxCell id="dwOkogamEhaXvfS-pk7C-44" value="" style="endArrow=none;html=1;rounded=0;entryX=0.5;entryY=1;entryDx=0;entryDy=0;exitX=0.5;exitY=0;exitDx=0;exitDy=0;" parent="1" source="AeX9q6g0KOqxnSNX1okh-1" target="dwOkogamEhaXvfS-pk7C-39" edge="1">
          <mxGeometry width="50" height="50" relative="1" as="geometry">
            <mxPoint x="-44" y="453" as="sourcePoint" />
            <mxPoint x="-120" y="270" as="targetPoint" />
          </mxGeometry>
        </mxCell>
        <mxCell id="dwOkogamEhaXvfS-pk7C-46" value="" style="endArrow=none;html=1;rounded=0;entryX=1;entryY=1;entryDx=0;entryDy=0;exitX=0;exitY=0;exitDx=0;exitDy=0;" parent="1" source="AeX9q6g0KOqxnSNX1okh-1" target="dwOkogamEhaXvfS-pk7C-33" edge="1">
          <mxGeometry width="50" height="50" relative="1" as="geometry">
            <mxPoint x="-150" y="519" as="sourcePoint" />
            <mxPoint x="-160" y="309" as="targetPoint" />
          </mxGeometry>
        </mxCell>
        <mxCell id="dwOkogamEhaXvfS-pk7C-47" value="" style="endArrow=none;html=1;rounded=0;entryX=1;entryY=0.5;entryDx=0;entryDy=0;exitX=0;exitY=0.25;exitDx=0;exitDy=0;" parent="1" source="AeX9q6g0KOqxnSNX1okh-1" target="dwOkogamEhaXvfS-pk7C-36" edge="1">
          <mxGeometry width="50" height="50" relative="1" as="geometry">
            <mxPoint x="-235" y="580" as="sourcePoint" />
            <mxPoint x="-245" y="370" as="targetPoint" />
          </mxGeometry>
        </mxCell>
        <mxCell id="dwOkogamEhaXvfS-pk7C-48" value="" style="endArrow=none;html=1;rounded=0;entryX=1;entryY=0.5;entryDx=0;entryDy=0;exitX=0;exitY=0.75;exitDx=0;exitDy=0;" parent="1" source="AeX9q6g0KOqxnSNX1okh-1" target="dwOkogamEhaXvfS-pk7C-38" edge="1">
          <mxGeometry width="50" height="50" relative="1" as="geometry">
            <mxPoint x="-230" y="680" as="sourcePoint" />
            <mxPoint x="-240" y="470" as="targetPoint" />
          </mxGeometry>
        </mxCell>
        <mxCell id="dwOkogamEhaXvfS-pk7C-49" value="" style="endArrow=none;html=1;rounded=0;entryX=0;entryY=1;entryDx=0;entryDy=0;exitX=0.5;exitY=0;exitDx=0;exitDy=0;" parent="1" source="dwOkogamEhaXvfS-pk7C-37" target="AeX9q6g0KOqxnSNX1okh-1" edge="1">
          <mxGeometry width="50" height="50" relative="1" as="geometry">
            <mxPoint x="-110" y="770" as="sourcePoint" />
            <mxPoint x="-120" y="560" as="targetPoint" />
          </mxGeometry>
        </mxCell>
        <mxCell id="dwOkogamEhaXvfS-pk7C-50" value="" style="endArrow=none;html=1;rounded=0;entryX=1;entryY=0.5;entryDx=0;entryDy=0;exitX=0;exitY=0.5;exitDx=0;exitDy=0;" parent="1" source="dwOkogamEhaXvfS-pk7C-33" target="dwOkogamEhaXvfS-pk7C-51" edge="1">
          <mxGeometry width="50" height="50" relative="1" as="geometry">
            <mxPoint x="-400" y="595" as="sourcePoint" />
            <mxPoint x="-410" y="385" as="targetPoint" />
          </mxGeometry>
        </mxCell>
        <mxCell id="dwOkogamEhaXvfS-pk7C-51" value="FName" style="ellipse;whiteSpace=wrap;html=1;" parent="1" vertex="1">
          <mxGeometry x="-530" y="350" width="120" height="80" as="geometry" />
        </mxCell>
        <mxCell id="dwOkogamEhaXvfS-pk7C-52" value="LName" style="ellipse;whiteSpace=wrap;html=1;" parent="1" vertex="1">
          <mxGeometry x="-370" y="130" width="120" height="80" as="geometry" />
        </mxCell>
        <mxCell id="dwOkogamEhaXvfS-pk7C-53" value="" style="endArrow=none;html=1;rounded=0;entryX=1;entryY=1;entryDx=0;entryDy=0;exitX=0;exitY=0;exitDx=0;exitDy=0;" parent="1" source="dwOkogamEhaXvfS-pk7C-33" target="dwOkogamEhaXvfS-pk7C-35" edge="1">
          <mxGeometry width="50" height="50" relative="1" as="geometry">
            <mxPoint x="-330" y="505" as="sourcePoint" />
            <mxPoint x="-340" y="295" as="targetPoint" />
          </mxGeometry>
        </mxCell>
        <mxCell id="dwOkogamEhaXvfS-pk7C-54" value="" style="endArrow=none;html=1;rounded=0;entryX=0.5;entryY=1;entryDx=0;entryDy=0;exitX=0.5;exitY=0;exitDx=0;exitDy=0;" parent="1" source="dwOkogamEhaXvfS-pk7C-33" target="dwOkogamEhaXvfS-pk7C-52" edge="1">
          <mxGeometry width="50" height="50" relative="1" as="geometry">
            <mxPoint x="-340" y="400" as="sourcePoint" />
            <mxPoint x="-350" y="190" as="targetPoint" />
          </mxGeometry>
        </mxCell>
        <mxCell id="L1_H7iu_4x4MC4DymqW3-2" value="DepID" style="ellipse;whiteSpace=wrap;html=1;" vertex="1" parent="1">
          <mxGeometry x="-100" y="-110" width="120" height="80" as="geometry" />
        </mxCell>
        <mxCell id="L1_H7iu_4x4MC4DymqW3-3" value="Location" style="ellipse;whiteSpace=wrap;html=1;" vertex="1" parent="1">
          <mxGeometry x="630" y="-140" width="120" height="80" as="geometry" />
        </mxCell>
        <mxCell id="L1_H7iu_4x4MC4DymqW3-4" value="Nutritional Facts" style="ellipse;whiteSpace=wrap;html=1;" vertex="1" parent="1">
          <mxGeometry x="830" y="-60" width="120" height="80" as="geometry" />
        </mxCell>
        <mxCell id="L1_H7iu_4x4MC4DymqW3-5" value="Quantity" style="ellipse;whiteSpace=wrap;html=1;" vertex="1" parent="1">
          <mxGeometry x="750" y="-130" width="120" height="80" as="geometry" />
        </mxCell>
        <mxCell id="L1_H7iu_4x4MC4DymqW3-6" value="Price" style="ellipse;whiteSpace=wrap;html=1;" vertex="1" parent="1">
          <mxGeometry x="500" y="-140" width="120" height="80" as="geometry" />
        </mxCell>
        <mxCell id="L1_H7iu_4x4MC4DymqW3-7" value="Name" style="ellipse;whiteSpace=wrap;html=1;" vertex="1" parent="1">
          <mxGeometry x="360" y="-140" width="120" height="80" as="geometry" />
        </mxCell>
        <mxCell id="L1_H7iu_4x4MC4DymqW3-8" value="" style="endArrow=none;html=1;rounded=0;entryX=0;entryY=0.5;entryDx=0;entryDy=0;exitX=0.75;exitY=0;exitDx=0;exitDy=0;" edge="1" parent="1" source="dwOkogamEhaXvfS-pk7C-2" target="L1_H7iu_4x4MC4DymqW3-4">
          <mxGeometry width="50" height="50" relative="1" as="geometry">
            <mxPoint x="740" y="70" as="sourcePoint" />
            <mxPoint x="790" y="20" as="targetPoint" />
          </mxGeometry>
        </mxCell>
        <mxCell id="L1_H7iu_4x4MC4DymqW3-9" value="" style="endArrow=none;html=1;rounded=0;entryX=0;entryY=1;entryDx=0;entryDy=0;exitX=0.5;exitY=0;exitDx=0;exitDy=0;" edge="1" parent="1" source="dwOkogamEhaXvfS-pk7C-2" target="L1_H7iu_4x4MC4DymqW3-5">
          <mxGeometry width="50" height="50" relative="1" as="geometry">
            <mxPoint x="650" y="30" as="sourcePoint" />
            <mxPoint x="700" y="-20" as="targetPoint" />
          </mxGeometry>
        </mxCell>
        <mxCell id="L1_H7iu_4x4MC4DymqW3-10" value="" style="endArrow=none;html=1;rounded=0;exitX=0.25;exitY=0;exitDx=0;exitDy=0;entryX=0.5;entryY=1;entryDx=0;entryDy=0;" edge="1" parent="1" source="dwOkogamEhaXvfS-pk7C-2" target="L1_H7iu_4x4MC4DymqW3-6">
          <mxGeometry width="50" height="50" relative="1" as="geometry">
            <mxPoint x="560" as="sourcePoint" />
            <mxPoint x="610" y="-50" as="targetPoint" />
          </mxGeometry>
        </mxCell>
        <mxCell id="L1_H7iu_4x4MC4DymqW3-11" value="" style="endArrow=none;html=1;rounded=0;entryX=0.674;entryY=0.983;entryDx=0;entryDy=0;entryPerimeter=0;exitX=0.167;exitY=0.061;exitDx=0;exitDy=0;exitPerimeter=0;" edge="1" parent="1" source="dwOkogamEhaXvfS-pk7C-2" target="L1_H7iu_4x4MC4DymqW3-7">
          <mxGeometry width="50" height="50" relative="1" as="geometry">
            <mxPoint x="400" y="190" as="sourcePoint" />
            <mxPoint x="450" y="140" as="targetPoint" />
          </mxGeometry>
        </mxCell>
        <mxCell id="L1_H7iu_4x4MC4DymqW3-12" value="" style="endArrow=none;html=1;rounded=0;entryX=0.5;entryY=1;entryDx=0;entryDy=0;exitX=0.403;exitY=-0.022;exitDx=0;exitDy=0;exitPerimeter=0;" edge="1" parent="1" source="dwOkogamEhaXvfS-pk7C-2" target="L1_H7iu_4x4MC4DymqW3-3">
          <mxGeometry width="50" height="50" relative="1" as="geometry">
            <mxPoint x="560" y="111" as="sourcePoint" />
            <mxPoint x="708" y="-71" as="targetPoint" />
          </mxGeometry>
        </mxCell>
        <mxCell id="L1_H7iu_4x4MC4DymqW3-13" value="" style="endArrow=none;html=1;rounded=0;entryX=0.563;entryY=1.004;entryDx=0;entryDy=0;exitX=0.5;exitY=0;exitDx=0;exitDy=0;entryPerimeter=0;" edge="1" parent="1" source="AeX9q6g0KOqxnSNX1okh-11" target="L1_H7iu_4x4MC4DymqW3-2">
          <mxGeometry width="50" height="50" relative="1" as="geometry">
            <mxPoint x="80" y="72" as="sourcePoint" />
            <mxPoint x="228" y="-110" as="targetPoint" />
          </mxGeometry>
        </mxCell>
        <mxCell id="L1_H7iu_4x4MC4DymqW3-17" value="Address" style="ellipse;whiteSpace=wrap;html=1;" vertex="1" parent="1">
          <mxGeometry x="280" y="810" width="120" height="80" as="geometry" />
        </mxCell>
        <mxCell id="L1_H7iu_4x4MC4DymqW3-23" value="IDNumber" style="ellipse;whiteSpace=wrap;html=1;" vertex="1" parent="1">
          <mxGeometry x="880" y="10" width="120" height="80" as="geometry" />
        </mxCell>
        <mxCell id="L1_H7iu_4x4MC4DymqW3-24" value="" style="endArrow=none;html=1;rounded=0;entryX=0;entryY=0.5;entryDx=0;entryDy=0;exitX=1;exitY=0;exitDx=0;exitDy=0;" edge="1" parent="1" source="dwOkogamEhaXvfS-pk7C-2" target="L1_H7iu_4x4MC4DymqW3-23">
          <mxGeometry width="50" height="50" relative="1" as="geometry">
            <mxPoint x="660" y="130" as="sourcePoint" />
            <mxPoint x="870" y="30" as="targetPoint" />
          </mxGeometry>
        </mxCell>
        <mxCell id="L1_H7iu_4x4MC4DymqW3-25" value="Consumption Rate" style="ellipse;whiteSpace=wrap;html=1;" vertex="1" parent="1">
          <mxGeometry x="910" y="100" width="120" height="80" as="geometry" />
        </mxCell>
        <mxCell id="L1_H7iu_4x4MC4DymqW3-26" value="" style="endArrow=none;html=1;rounded=0;entryX=0;entryY=0.5;entryDx=0;entryDy=0;exitX=1;exitY=0.25;exitDx=0;exitDy=0;" edge="1" parent="1" source="dwOkogamEhaXvfS-pk7C-2" target="L1_H7iu_4x4MC4DymqW3-25">
          <mxGeometry width="50" height="50" relative="1" as="geometry">
            <mxPoint x="690" y="145" as="sourcePoint" />
            <mxPoint x="890" y="60" as="targetPoint" />
          </mxGeometry>
        </mxCell>
        <mxCell id="L1_H7iu_4x4MC4DymqW3-28" value="IDNumber" style="ellipse;whiteSpace=wrap;html=1;" vertex="1" parent="1">
          <mxGeometry x="410" y="800" width="120" height="80" as="geometry" />
        </mxCell>
        <mxCell id="L1_H7iu_4x4MC4DymqW3-29" value="Open Date" style="ellipse;whiteSpace=wrap;html=1;" vertex="1" parent="1">
          <mxGeometry x="140" y="810" width="120" height="80" as="geometry" />
        </mxCell>
        <mxCell id="L1_H7iu_4x4MC4DymqW3-30" value="IDNumber" style="ellipse;whiteSpace=wrap;html=1;" vertex="1" parent="1">
          <mxGeometry x="-280" y="670" width="120" height="80" as="geometry" />
        </mxCell>
        <mxCell id="L1_H7iu_4x4MC4DymqW3-31" value="" style="endArrow=none;html=1;rounded=0;entryX=0.75;entryY=1;entryDx=0;entryDy=0;exitX=0.5;exitY=0;exitDx=0;exitDy=0;" edge="1" parent="1" source="L1_H7iu_4x4MC4DymqW3-28" target="AeX9q6g0KOqxnSNX1okh-4">
          <mxGeometry width="50" height="50" relative="1" as="geometry">
            <mxPoint x="430" y="880" as="sourcePoint" />
            <mxPoint x="440" y="720" as="targetPoint" />
          </mxGeometry>
        </mxCell>
        <mxCell id="L1_H7iu_4x4MC4DymqW3-32" value="" style="endArrow=none;html=1;rounded=0;entryX=0.25;entryY=1;entryDx=0;entryDy=0;exitX=0.5;exitY=0;exitDx=0;exitDy=0;" edge="1" parent="1" source="L1_H7iu_4x4MC4DymqW3-17" target="AeX9q6g0KOqxnSNX1okh-4">
          <mxGeometry width="50" height="50" relative="1" as="geometry">
            <mxPoint x="300" y="870" as="sourcePoint" />
            <mxPoint x="310" y="710" as="targetPoint" />
          </mxGeometry>
        </mxCell>
        <mxCell id="L1_H7iu_4x4MC4DymqW3-34" value="" style="endArrow=none;html=1;rounded=0;entryX=0;entryY=1;entryDx=0;entryDy=0;exitX=0.5;exitY=0;exitDx=0;exitDy=0;" edge="1" parent="1" source="L1_H7iu_4x4MC4DymqW3-29" target="AeX9q6g0KOqxnSNX1okh-4">
          <mxGeometry width="50" height="50" relative="1" as="geometry">
            <mxPoint x="240" y="820" as="sourcePoint" />
            <mxPoint x="250" y="660" as="targetPoint" />
          </mxGeometry>
        </mxCell>
        <mxCell id="L1_H7iu_4x4MC4DymqW3-35" value="" style="endArrow=none;html=1;rounded=0;entryX=0.25;entryY=1;entryDx=0;entryDy=0;exitX=0.5;exitY=0;exitDx=0;exitDy=0;" edge="1" parent="1" source="L1_H7iu_4x4MC4DymqW3-30" target="AeX9q6g0KOqxnSNX1okh-1">
          <mxGeometry width="50" height="50" relative="1" as="geometry">
            <mxPoint x="-70" y="730" as="sourcePoint" />
            <mxPoint x="-60" y="570" as="targetPoint" />
          </mxGeometry>
        </mxCell>
        <mxCell id="L1_H7iu_4x4MC4DymqW3-38" style="edgeStyle=orthogonalEdgeStyle;rounded=0;orthogonalLoop=1;jettySize=auto;html=1;exitX=0.5;exitY=0;exitDx=0;exitDy=0;entryX=0.5;entryY=1;entryDx=0;entryDy=0;" edge="1" parent="1" source="L1_H7iu_4x4MC4DymqW3-36" target="dwOkogamEhaXvfS-pk7C-10">
          <mxGeometry relative="1" as="geometry" />
        </mxCell>
        <mxCell id="L1_H7iu_4x4MC4DymqW3-36" value="Browses" style="rhombus;whiteSpace=wrap;html=1;" vertex="1" parent="1">
          <mxGeometry x="960" y="360" width="80" height="80" as="geometry" />
        </mxCell>
        <mxCell id="L1_H7iu_4x4MC4DymqW3-46" value="Customer" style="rounded=0;whiteSpace=wrap;html=1;" vertex="1" parent="1">
          <mxGeometry x="830" y="600" width="120" height="60" as="geometry" />
        </mxCell>
        <mxCell id="L1_H7iu_4x4MC4DymqW3-53" value="Email" style="ellipse;whiteSpace=wrap;html=1;" vertex="1" parent="1">
          <mxGeometry x="809" y="800" width="120" height="80" as="geometry" />
        </mxCell>
        <mxCell id="L1_H7iu_4x4MC4DymqW3-54" value="Name" style="ellipse;whiteSpace=wrap;html=1;" vertex="1" parent="1">
          <mxGeometry x="990" y="790" width="120" height="80" as="geometry" />
        </mxCell>
        <mxCell id="L1_H7iu_4x4MC4DymqW3-55" value="Phone Number" style="ellipse;whiteSpace=wrap;html=1;" vertex="1" parent="1">
          <mxGeometry x="649" y="790" width="120" height="80" as="geometry" />
        </mxCell>
        <mxCell id="L1_H7iu_4x4MC4DymqW3-56" value="" style="endArrow=none;html=1;rounded=0;entryX=0.75;entryY=1;entryDx=0;entryDy=0;exitX=0.5;exitY=0;exitDx=0;exitDy=0;" edge="1" parent="1" source="L1_H7iu_4x4MC4DymqW3-54" target="L1_H7iu_4x4MC4DymqW3-46">
          <mxGeometry width="50" height="50" relative="1" as="geometry">
            <mxPoint x="1100" y="1100" as="sourcePoint" />
            <mxPoint x="1110" y="940" as="targetPoint" />
          </mxGeometry>
        </mxCell>
        <mxCell id="L1_H7iu_4x4MC4DymqW3-57" value="" style="endArrow=none;html=1;rounded=0;entryX=0.25;entryY=1;entryDx=0;entryDy=0;exitX=0.5;exitY=0;exitDx=0;exitDy=0;" edge="1" parent="1" source="L1_H7iu_4x4MC4DymqW3-53" target="L1_H7iu_4x4MC4DymqW3-46">
          <mxGeometry width="50" height="50" relative="1" as="geometry">
            <mxPoint x="970" y="1090" as="sourcePoint" />
            <mxPoint x="980" y="930" as="targetPoint" />
          </mxGeometry>
        </mxCell>
        <mxCell id="L1_H7iu_4x4MC4DymqW3-58" value="" style="endArrow=none;html=1;rounded=0;entryX=0;entryY=1;entryDx=0;entryDy=0;exitX=0.5;exitY=0;exitDx=0;exitDy=0;" edge="1" parent="1" source="L1_H7iu_4x4MC4DymqW3-55" target="L1_H7iu_4x4MC4DymqW3-46">
          <mxGeometry width="50" height="50" relative="1" as="geometry">
            <mxPoint x="910" y="1040" as="sourcePoint" />
            <mxPoint x="920" y="880" as="targetPoint" />
          </mxGeometry>
        </mxCell>
        <mxCell id="L1_H7iu_4x4MC4DymqW3-59" value="Email" style="ellipse;whiteSpace=wrap;html=1;" vertex="1" parent="1">
          <mxGeometry y="670" width="120" height="80" as="geometry" />
        </mxCell>
        <mxCell id="L1_H7iu_4x4MC4DymqW3-60" value="Phone Number" style="ellipse;whiteSpace=wrap;html=1;" vertex="1" parent="1">
          <mxGeometry x="-150" y="680" width="120" height="80" as="geometry" />
        </mxCell>
        <mxCell id="L1_H7iu_4x4MC4DymqW3-62" value="" style="endArrow=none;html=1;rounded=0;entryX=0.5;entryY=1;entryDx=0;entryDy=0;exitX=0.5;exitY=0;exitDx=0;exitDy=0;" edge="1" parent="1" source="L1_H7iu_4x4MC4DymqW3-60" target="AeX9q6g0KOqxnSNX1okh-1">
          <mxGeometry width="50" height="50" relative="1" as="geometry">
            <mxPoint x="-210" y="680" as="sourcePoint" />
            <mxPoint x="-70" y="530" as="targetPoint" />
          </mxGeometry>
        </mxCell>
        <mxCell id="L1_H7iu_4x4MC4DymqW3-63" value="" style="endArrow=none;html=1;rounded=0;entryX=0.618;entryY=0.979;entryDx=0;entryDy=0;exitX=0.5;exitY=0;exitDx=0;exitDy=0;entryPerimeter=0;" edge="1" parent="1" source="L1_H7iu_4x4MC4DymqW3-59" target="AeX9q6g0KOqxnSNX1okh-1">
          <mxGeometry width="50" height="50" relative="1" as="geometry">
            <mxPoint x="-200" y="690" as="sourcePoint" />
            <mxPoint x="-60" y="540" as="targetPoint" />
          </mxGeometry>
        </mxCell>
        <mxCell id="L1_H7iu_4x4MC4DymqW3-65" value="Works In" style="rhombus;whiteSpace=wrap;html=1;" vertex="1" parent="1">
          <mxGeometry x="130" y="300" width="80" height="80" as="geometry" />
        </mxCell>
        <mxCell id="L1_H7iu_4x4MC4DymqW3-66" value="" style="shape=link;html=1;rounded=0;" edge="1" parent="1" source="L1_H7iu_4x4MC4DymqW3-65">
          <mxGeometry width="100" relative="1" as="geometry">
            <mxPoint x="40" y="350" as="sourcePoint" />
            <mxPoint x="10" y="460" as="targetPoint" />
          </mxGeometry>
        </mxCell>
        <mxCell id="L1_H7iu_4x4MC4DymqW3-67" value="" style="shape=link;html=1;rounded=0;entryX=0.5;entryY=0;entryDx=0;entryDy=0;exitX=1;exitY=1;exitDx=0;exitDy=0;" edge="1" parent="1" source="AeX9q6g0KOqxnSNX1okh-11" target="L1_H7iu_4x4MC4DymqW3-65">
          <mxGeometry width="100" relative="1" as="geometry">
            <mxPoint x="50" y="360" as="sourcePoint" />
            <mxPoint x="30" y="510" as="targetPoint" />
          </mxGeometry>
        </mxCell>
        <mxCell id="L1_H7iu_4x4MC4DymqW3-69" value="" style="edgeStyle=orthogonalEdgeStyle;rounded=0;orthogonalLoop=1;jettySize=auto;html=1;" edge="1" parent="1" source="L1_H7iu_4x4MC4DymqW3-68" target="AeX9q6g0KOqxnSNX1okh-11">
          <mxGeometry relative="1" as="geometry" />
        </mxCell>
        <mxCell id="L1_H7iu_4x4MC4DymqW3-70" value="" style="edgeStyle=orthogonalEdgeStyle;rounded=0;orthogonalLoop=1;jettySize=auto;html=1;" edge="1" parent="1" source="L1_H7iu_4x4MC4DymqW3-68" target="dwOkogamEhaXvfS-pk7C-11">
          <mxGeometry relative="1" as="geometry" />
        </mxCell>
        <mxCell id="L1_H7iu_4x4MC4DymqW3-68" value="Orders From" style="rhombus;whiteSpace=wrap;html=1;" vertex="1" parent="1">
          <mxGeometry x="160" y="50" width="80" height="80" as="geometry" />
        </mxCell>
        <mxCell id="L1_H7iu_4x4MC4DymqW3-73" style="edgeStyle=orthogonalEdgeStyle;rounded=0;orthogonalLoop=1;jettySize=auto;html=1;entryX=1;entryY=0.5;entryDx=0;entryDy=0;" edge="1" parent="1" source="L1_H7iu_4x4MC4DymqW3-72" target="AeX9q6g0KOqxnSNX1okh-1">
          <mxGeometry relative="1" as="geometry">
            <Array as="points">
              <mxPoint x="340" y="420" />
              <mxPoint x="155" y="420" />
              <mxPoint x="155" y="490" />
            </Array>
          </mxGeometry>
        </mxCell>
        <mxCell id="L1_H7iu_4x4MC4DymqW3-74" style="edgeStyle=orthogonalEdgeStyle;rounded=0;orthogonalLoop=1;jettySize=auto;html=1;entryX=0;entryY=0.5;entryDx=0;entryDy=0;" edge="1" parent="1" source="L1_H7iu_4x4MC4DymqW3-72" target="dwOkogamEhaXvfS-pk7C-2">
          <mxGeometry relative="1" as="geometry">
            <Array as="points">
              <mxPoint x="340" y="240" />
              <mxPoint x="470" y="240" />
              <mxPoint x="470" y="150" />
            </Array>
          </mxGeometry>
        </mxCell>
        <mxCell id="L1_H7iu_4x4MC4DymqW3-75" style="edgeStyle=orthogonalEdgeStyle;rounded=0;orthogonalLoop=1;jettySize=auto;html=1;entryX=0;entryY=0.5;entryDx=0;entryDy=0;exitX=1;exitY=1;exitDx=0;exitDy=0;" edge="1" parent="1" source="L1_H7iu_4x4MC4DymqW3-72" target="AeX9q6g0KOqxnSNX1okh-3">
          <mxGeometry relative="1" as="geometry" />
        </mxCell>
        <mxCell id="L1_H7iu_4x4MC4DymqW3-76" style="edgeStyle=orthogonalEdgeStyle;rounded=0;orthogonalLoop=1;jettySize=auto;html=1;entryX=0;entryY=1;entryDx=0;entryDy=0;" edge="1" parent="1" source="L1_H7iu_4x4MC4DymqW3-72" target="dwOkogamEhaXvfS-pk7C-10">
          <mxGeometry relative="1" as="geometry" />
        </mxCell>
        <mxCell id="L1_H7iu_4x4MC4DymqW3-72" value="Moves To/From" style="rhombus;whiteSpace=wrap;html=1;" vertex="1" parent="1">
          <mxGeometry x="300" y="290" width="80" height="80" as="geometry" />
        </mxCell>
      </root>
    </mxGraphModel>
  </diagram>
</mxfile>
